<svg version="1.1" baseProfile="tiny" id="Layer_1" xmlns="http://www.w3.org/2000/svg" xmlns:xlink="http://www.w3.org/1999/xlink"
	 x="0px" y="0px" width="96.073px" height="123.984px" viewBox="0 0 96.073 123.984" xml:space="preserve">
<g>
	<path fill="#010101" d="M18.169,36.713c0,0,3.452-4.222,4.551-5.489C23.813,29.955,25,29.457,25,29.457s1.598,0.674,2.36,1.34
		c0.755,0.683,2.866,1.87,3.804,2.537c0.923,0.681,2.785,2.616,2.785,2.616s3.203-3.804,3.789-4.896
		c0.594-1.091,3.467-4.302,4.647-5.57c1.18-1.267,4.72-3.796,6.369-3.877c1.649-0.095,3.591,1.349,4.097,1.935
		c0.498,0.594,3.877,4.383,4.889,4.977c1.019,0.593,3.965,2.037,5.321,3.13c1.341,1.091,3.034,3.628,3.034,3.628
		s1.268-1.612,2.287-2.023c0.997-0.425,1.678-1.012,2.272-1.701c0.594-0.666,2.191-1.758,2.697-1.516
		c0.506,0.257,1.349,0.519,2.624,1.78c1.261,1.261,3.357,2.609,3.357,2.609C77.068,19.658,64.3,8.334,48.894,8.334
		C32.682,8.334,19.393,20.838,18.169,36.713z"/>
	<path fill="#010101" d="M48.044,0C35.804,0,0,8.553,0,8.553v38.479c0,59.844,48.044,76.951,48.044,76.951
		s48.029-17.107,48.029-76.951V8.553C96.073,8.553,60.277,0,48.044,0z M4.83,53.988c0-0.008,0.007-0.008,0.015-0.023
		C6.64,52.295,17.327,42.034,18.03,41.307c0.689-0.74,6.105-6.324,7.293-6.471c1.202-0.132,4.779,3.628,4.727,4.508
		c-0.029,0.872-1.466,4.91-2.155,5.914c-0.696,0.997-4.808,6.509-6.164,7.894c-1.371,1.393-5.585,4.793-6.076,5.087
		c-0.484,0.285-1.715,1.15-1.686,1.582c0,0-3.613,3.416-4.749,3.864c-0.748,0.3-1.759,1.142-2.983,1.942
		C5.556,61.984,5.065,58.107,4.83,53.988z M9.367,77.273c-0.748-2.088-1.415-4.28-1.994-6.567c2.074-0.117,4.456-0.321,6.963-0.161
		c3.379,0.227,4.053,1.246,8.436,1.459c4.398,0.227,16.381,0.161,24.15,0.453c26.151,1.019,10.906,2.478,8.707,2.595
		c-2.184,0.11-19.13,0.33-23.403,0.784c-4.273,0.447-15.978,0.983-22.721,1.423C9.447,77.265,9.403,77.265,9.367,77.273z
		 M32.029,103.337v1.641h-0.828v-1.62l-3.643,0.066l1.935-3.4l-1.305,0.263l2.199-3.305l-0.923-0.14l1.612-3.364h-0.374l0.982-1.825
		l0.938,2.346h-0.469l1.942,3.262l-0.96-0.323l2.001,3.335l-0.997-0.257l1.744,3.32H32.029z M49.268,110.731v3.277h-3.284v-3.679
		l-6.032,0.132l3.591-5.974l-2.206,0.44l3.899-5.782h-1.598l2.866-5.666h-0.652l1.715-3.445l1.664,3.981l-0.85-0.066l3.438,5.687
		l-1.701-0.549l3.533,5.841l-1.774-0.257l3.071,6.055h-5.68V110.731z M63.223,103.337v1.641h-1.634v-1.62l-3.474,0.066l2.008-3.4
		l-1.261,0.263l2.213-3.305l-0.909-0.14l1.634-3.364h-0.374l0.975-1.825l0.938,2.346h-0.476l1.957,3.262l-0.968-0.323l2.008,3.335
		l-1.004-0.257l1.744,3.32H63.223z M84.522,82.764c-1.451,0.138-3.078,0.278-4.222,0.278c-2.58,0-7.242,1.795-22.325,1.576
		c-15.076-0.227-22.054-1.261-28.013-1.576c-22.296-1.21,10.789-5.027,16.894-5.291c11.961-0.506,31.055-1.693,38.252-3.709
		c7.205-2.023-29.633-3.158-34.023-3.379c-4.39-0.219-5.966-1.121-10.239-1.004c-4.273,0.102-7.535,0.221-16.315,0
		c-8.781-0.234-8.89-1.59-13.618-1.693c-4.727-0.117-1.341-1.693,1.356-2.939c2.697-1.238,4.361-3.496,4.361-3.496
		c0.799-1.012,8.311-9.389,9.594-11.36c1.283-1.972,5.578-6.333,6.721-7.498c1.143-1.181,4.412-4.428,4.727-5.087
		c0.33-0.653,5.072-7.007,6.567-8.362c1.488-1.357,3.547-3.394,3.885-3.335c0.33,0.059,0.63,0.059,0.608,0.696
		c-0.015,0.645-0.235,1.465,0.051,1.459c0.278-0.008,1.173,0.029,1.246,0.387c0.088,0.366-2.015,2.61-2.015,2.852
		c0,0.234,1.561,0.366,1.517,0.578c-0.037,0.221-0.366,1.855-0.242,1.987c0.117,0.153,0.879,0.468,0.638,0.842
		c-0.249,0.374-3.547,4.947-3.562,5.321c-0.015,0.381,4.222,3.086,3.643,4.361c-0.586,1.283-2.646,4.553-2.683,4.977
		c-0.029,0.44,2.499,1.238,2.507,1.612c0.007,0.374-2.939,2.192-3.196,2.573c-0.257,0.381-1.554,3.092-1.517,3.906
		c0.044,0.814,0.814,2.565,0.542,3.167c-0.271,0.593-0.777,0.857-1.612,1.144c-0.836,0.285-1.056,0.359-1.539,0.982
		c-0.462,0.63,2.77,2.294,2.77,2.294s4.764-2.235,7.645-2.69c2.895-0.455,3.921,0.88,4.324,0.638
		c0.784-0.498,2.433-3.122,2.697-3.921c0.286-0.806,0.447-1.334,0.674-1.606c0.242-0.278,0.667,0.543,1.085,0.17
		c0.41-0.366,2.14-2.148,2.514-2.082c0.366,0.081,0.835,0.206,0.484,1.187c-0.352,0.982-2.25,2.463-2.228,3.1
		c0.037,0.645,0.344,3.32,0.784,3.16c0.432-0.176,0.96-1.297,1.371-1.334c0.396-0.021,2.184,2.207,3.1,2.529
		c2.338,0.85,1.547-2.529,2.91-2.55c1.356-0.023,5.219,1.854,5.658,1.765c0.447-0.066,0.953,0.272,1.063-0.329
		c0.103-0.587,0.491-1.482,0.081-1.65c-0.411-0.161-1.4-0.279-2.03-0.674c-0.63-0.389-0.63-1.108-1.143-1.84
		c-0.528-0.725-1.4-1.437-1.429-1.935c-0.015-0.491,0.146-1.078,0.901-0.711c0.762,0.374,1.766,1.584,2.536,2.31
		c0.77,0.718-0.191,1.509,0.366,1.788c0.564,0.285,4.742,0.293,4.845,0.799c0.11,0.513-0.183,1.686,0.784,1.833
		c0.975,0.14,4.009,0.961,4.581,0.725c0.564-0.219,0.506-1.714,0.733-2.213c0.213-0.513,1.18-1.415,1.261-1.957
		c0.073-0.534-1.011-1.891-2.133-2.565c-1.107-0.659-4.771-2.558-5.057-2.888c-0.271-0.308-0.161-0.923,0.293-0.895
		c0,0,1.51,0,2.338,0.742c0.836,0.748,0.77,1.325,1.884,1.414c1.129,0.095,2.514-0.03,2.873-0.293
		c0.359-0.257,1.341-0.734,1.356-1.533c0.022-0.791-0.96-0.585-1.422-0.71c-0.484-0.125-1.261-0.419-1.495-0.579
		c-0.029-0.023-0.066-0.045-0.11-0.089c0.037,0.023,2.243-0.081,3.958-0.095C90.877,64.22,88.267,74.356,84.522,82.764z
		 M73.323,35.276c0.843,0.491-0.176,0.564-0.125,1.282c0.051,0.719,1.209,0.206,1.246,0.77c0.022,0.564,0.19,1.414,0.066,1.891
		c-0.147,0.491,0.191,1.055,0.462,0.763c0.264-0.294,0.542-0.859,0.623-0.345c0.066,0.506-0.403,2.273-0.872,2.962
		c-0.022,0.021-0.029,0.044-0.059,0.074c-0.77-0.66-1.774-1.225-3.042-1.452c-1.81-0.315-3.76-0.528-4.662-0.602
		c0.117-0.249,0.242-0.519,0.323-0.725c0.205-0.44,0.498-0.374,0.586-0.6c0.103-0.221,0.286-0.368,0.623-0.91
		c0.337-0.542,0.586-0.748,0.945-1.091c0.367-0.33,0.799-0.236,1.209-0.579c0.418-0.338,0.63-0.608,0.887-0.982
		c0.257-0.368,0.491-0.778,0.799-1.174c0.301-0.41,0.484-0.344,0.484-0.344C73.359,34.081,72.48,34.77,73.323,35.276z
		 M91.148,48.227c0,0.579,0.125,1.136,0.103,1.714c-0.249-0.11-0.44-0.227-0.682-0.351c-0.777-0.396-1.884-1.165-3.005-2.243
		c-1.107-1.078-2.441-2.375-2.932-2.977c-0.498-0.6-1.437-3.247-1.832-3.913c-0.403-0.659-2.485-2.316-3.701-2.888
		c-1.209-0.572-3.386-2.484-4.251-3.137c-0.865-0.651-0.924-1.099-1.525-1.319c-0.601-0.227-1.077,0.353-1.759,1.108
		c-0.491,0.527-0.264,0.893-0.953,1.503c-0.682,0.615-1.759,0.718-2.206,1.142c-0.447,0.426-1.561,1.54-2.074,2.288
		c-0.11,0.153-0.234,0.293-0.352,0.402c-0.234-0.506-0.476-1.048-0.528-1.216c-0.081-0.338-1.393-2.339-1.832-2.822
		c-1.283-1.363-6.127-3.738-6.127-3.738s-4.625-5.029-4.889-5.314c-0.271-0.279-3.408-2.059-3.98-1.993
		c-0.572,0.066-1.524,0.483-1.906,0.827c-0.388,0.345-4.288,3.467-5.182,4.383c-0.894,0.91-2.309,2.873-3.438,4.662
		c-1.114,1.788-3.731,4.823-3.731,4.823s-3.269-2.112-4.185-2.807c-0.909-0.704-3.753-2.969-4.222-3.196
		c-0.476-0.228-0.645-0.485-0.938-0.162c-0.286,0.315-3.284,3.475-4.134,4.589c-0.843,1.129-4.258,4.185-5.123,4.734
		c-0.858,0.549-3.1,1.693-4.28,2.881c-1.195,1.18-3.027,3.115-3.782,3.936C7,49.934,5.746,51.533,4.881,52.105
		c-0.051-1.276,0.044-2.565,0.044-3.877V12.819c0,0,32.117-7.872,43.119-7.872c10.987,0,43.104,7.872,43.104,7.872V48.227z"/>
</g>
</svg>
